<svg xmlns="http://www.w3.org/2000/svg" viewBox="0 0 33.56 49.54"><defs><style>.cls-1{fill:#231815;opacity:0.1;}.cls-2{fill:#fbc62c;}.cls-3{fill:#fcf9f2;}</style></defs><g id="图层_2" data-name="图层 2"><g id="图层_1-2" data-name="图层 1"><ellipse class="cls-1" cx="16.78" cy="46.87" rx="8" ry="2.67"/><path class="cls-2" d="M33.16,20.37h0a16.39,16.39,0,0,0,.4-3.59A16.78,16.78,0,0,0,0,16.78a17.13,17.13,0,0,0,.36,3.46A17.11,17.11,0,0,0,7.11,30.8c8.47,6.16,7.75,16.4,9.8,16.4s1.32-10.24,10-16.65a17.65,17.65,0,0,0,5.27-7,17,17,0,0,0,1-3.17ZM16.78,33.56Z"/><circle class="cls-3" cx="16.78" cy="16.78" r="14.5" transform="translate(-4.89 26.45) rotate(-69.06)"/><path class="cls-2" d="M17.92,14.32a3.15,3.15,0,0,0-3.14,3.14,3.18,3.18,0,0,0,3.14,3.14,3.15,3.15,0,0,0,3.14-3.14A3.18,3.18,0,0,0,17.92,14.32Z"/><path class="cls-2" d="M25.11,11.07H21.67a6,6,0,0,0-7.67,0H8.45a1.16,1.16,0,0,0-1.17,1.16V22.68a1.16,1.16,0,0,0,1.17,1.16H25.11a1.16,1.16,0,0,0,1.17-1.16V12.23A1.16,1.16,0,0,0,25.11,11.07Zm-12.78,5H9.73a.59.59,0,0,1-.59-.58.6.6,0,0,1,.59-.59h2.6a.6.6,0,0,1,.59.59A.59.59,0,0,1,12.33,16.07Zm0-1.65H9.73a.59.59,0,0,1-.59-.58.6.6,0,0,1,.59-.59h2.6a.6.6,0,0,1,.59.59A.56.56,0,0,1,12.33,14.42Zm5.59,7.4a4.37,4.37,0,1,1,4.37-4.36A4.38,4.38,0,0,1,17.92,21.82Z"/></g></g></svg>