<svg xmlns="http://www.w3.org/2000/svg" viewBox="0 0 33.56 49.54"><defs><style>.cls-1{fill:#231815;opacity:0.1;}.cls-2{fill:#fbc62c;}.cls-3{fill:#fcf9f2;}</style></defs><g id="图层_2" data-name="图层 2"><g id="图层_1-2" data-name="图层 1"><ellipse class="cls-1" cx="16.78" cy="46.87" rx="8" ry="2.67"/><path class="cls-2" d="M33.16,20.37h0a16.39,16.39,0,0,0,.4-3.59A16.78,16.78,0,0,0,0,16.78a17.13,17.13,0,0,0,.36,3.46A17.11,17.11,0,0,0,7.11,30.8c8.47,6.16,7.75,16.4,9.8,16.4s1.32-10.24,10-16.65a17.65,17.65,0,0,0,5.27-7,17,17,0,0,0,1-3.17ZM16.78,33.56Z"/><circle class="cls-3" cx="16.78" cy="16.78" r="14.5" transform="translate(-4.89 26.45) rotate(-69.06)"/><path class="cls-2" d="M16.33,16a4.69,4.69,0,1,0,0-9.38A4.51,4.51,0,0,0,13,8a4.51,4.51,0,0,0-1.38,3.31A4.68,4.68,0,0,0,16.33,16Z"/><path class="cls-2" d="M20.88,15.21h-.17a1.37,1.37,0,0,0-.51.26l-.91.57a5.79,5.79,0,0,1-1.32.59,5.19,5.19,0,0,1-3.26,0A5.6,5.6,0,0,1,13.39,16l-.91-.59a1.45,1.45,0,0,0-.51-.26,3.69,3.69,0,0,0-1.36.25,3.09,3.09,0,0,0-1,.65,4.64,4.64,0,0,0-.72,1,6.6,6.6,0,0,0-.52,1.19A8.47,8.47,0,0,0,8,19.59a11.79,11.79,0,0,0-.17,1.33c0,.41,0,.83,0,1.27a3.06,3.06,0,0,0,.89,2.31,3.34,3.34,0,0,0,2.37.85h9a3.5,3.5,0,0,1-1-2.44l0-4.63A3.5,3.5,0,0,1,20.88,15.21Z"/><path class="cls-2" d="M23,16.08a2.8,2.8,0,0,0-2.79,2.79V22.6a2.8,2.8,0,0,0,5.59,0V18.87A2.79,2.79,0,0,0,23,16.08Zm.34,7.32a.51.51,0,0,1-.34.13.44.44,0,0,1-.46-.46A.46.46,0,0,1,23,22.6a.45.45,0,0,1,.47.47.49.49,0,0,1-.16.33Zm1-3.21a1.85,1.85,0,0,1-1.32.54,1.88,1.88,0,0,1-1.73-1.15,1.86,1.86,0,1,1,3.05.61Z"/><path class="cls-2" d="M23,17.94a.92.92,0,0,0-.87.57.94.94,0,1,0,1.8.36A.93.93,0,0,0,23,17.94Z"/></g></g></svg>