<?xml version="1.0" standalone="no"?><!DOCTYPE svg PUBLIC "-//W3C//DTD SVG 1.1//EN" "http://www.w3.org/Graphics/SVG/1.1/DTD/svg11.dtd"><svg t="1716530178173" class="icon" viewBox="0 0 1024 1024" version="1.1" xmlns="http://www.w3.org/2000/svg" p-id="11445" width="48" height="48" xmlns:xlink="http://www.w3.org/1999/xlink"><path d="M828.082892 214.053012C771.947952 85.374458 643.516145 3.454458 503.117108 6.908916 412.684337 8.019277 326.322892 45.031325 263.155663 109.80241 199.988434 174.45012 165.073735 261.675181 166.184096 352.107952 166.30747 450.313253 207.884337 541.609639 277.343614 605.763855l234.162892 411.327229L745.669398 605.763855c4.441446-4.071325 8.759518-8.266024 12.954216-12.584096 98.081928-100.549398 125.470843-250.324819 69.459278-379.126747z" fill="#01B4F1" p-id="11446"></path><path d="M511.62988 67.732048C354.081928 67.732048 226.390361 195.423614 226.390361 352.971566c0 157.547952 127.691566 285.239518 285.239519 285.239518 157.547952 0 285.239518-127.691566 285.239518-285.239518-0.123373-157.547952-127.81494-285.239518-285.239518-285.239518z m127.938313 254.026024c-58.849157 81.54988-117.57494 163.223133-176.424097 244.773012-5.675181 7.895904-19.122892 3.454458-16.285301-6.908915l38.862651-140.275663c1.233735-4.441446 6.785542-16.038554 3.947952-19.986506-3.207711-4.441446-21.960482-1.480482-27.018796-1.480482h-71.556626c-6.292048 0-11.843855-7.895904-7.77253-13.571084 58.849157-81.54988 117.57494-163.223133 176.424096-244.773012 5.675181-7.77253 19.122892-3.454458 16.285301 6.908915-7.40241 26.525301-14.681446 53.050602-22.083855 79.575904-5.058313 18.135904-10.116627 36.395181-15.17494 54.654458-1.727229 6.292048-8.266024 19.493012-6.292048 26.648674 10.24 6.292048 39.726265 0.986988 50.336386 0.986988H631.672289c6.538795-0.246747 12.090602 7.649157 7.895904 13.447711z" fill="#FFFFFF" p-id="11447"></path></svg>