<svg xmlns="http://www.w3.org/2000/svg" viewBox="0 0 33.56 49.54"><defs><style>.cls-1{fill:#231815;opacity:0.1;}.cls-2{fill:#d60a3e;}.cls-3{fill:#fcf9f2;}</style></defs><g id="图层_2" data-name="图层 2"><g id="图层_1-2" data-name="图层 1"><ellipse class="cls-1" cx="16.78" cy="46.87" rx="8" ry="2.67"/><path class="cls-2" d="M33.16,20.37h0a16.39,16.39,0,0,0,.4-3.59A16.78,16.78,0,0,0,0,16.78a17.13,17.13,0,0,0,.36,3.46A17.11,17.11,0,0,0,7.11,30.8c8.47,6.16,7.75,16.4,9.8,16.4s1.32-10.24,10-16.65a17.65,17.65,0,0,0,5.27-7,17,17,0,0,0,1-3.17ZM16.78,33.56Z"/><circle class="cls-3" cx="16.78" cy="16.78" r="14.5" transform="translate(-4.89 26.45) rotate(-69.06)"/><path class="cls-2" d="M22.62,7.64H10.94A2.16,2.16,0,0,0,8.78,9.8V24.52a2.16,2.16,0,0,0,2.16,2.16H22.62a2.16,2.16,0,0,0,2.16-2.16V9.8A2.16,2.16,0,0,0,22.62,7.64Zm-9,2.09h6.22a.78.78,0,0,1,0,1.56H13.67a.78.78,0,0,1,0-1.56Zm5.72,6.65a2.45,2.45,0,0,1-.75,1.8,2.42,2.42,0,0,1-1.8.75,2.54,2.54,0,0,1-2.54-2.55,2.48,2.48,0,0,1,.74-1.8,2.45,2.45,0,0,1,1.8-.74,2.41,2.41,0,0,1,1.8.74A2.45,2.45,0,0,1,19.39,16.38ZM21,23.56a1.79,1.79,0,0,1-1.29.46H14a1.77,1.77,0,0,1-1.29-.46,1.67,1.67,0,0,1-.48-1.26c0-.23,0-.46,0-.68a6.91,6.91,0,0,1,.09-.73,6.31,6.31,0,0,1,.18-.72,3.27,3.27,0,0,1,.28-.64,2.55,2.55,0,0,1,.41-.54,1.65,1.65,0,0,1,.57-.35,1.91,1.91,0,0,1,.74-.14.83.83,0,0,1,.28.15l.49.31a3.23,3.23,0,0,0,1.6.46,3.15,3.15,0,0,0,1.6-.46l.5-.31a.75.75,0,0,1,.28-.15,2,2,0,0,1,.74.14,1.52,1.52,0,0,1,.56.35,2.26,2.26,0,0,1,.41.54,3.32,3.32,0,0,1,.29.64,4.75,4.75,0,0,1,.17.72,7.05,7.05,0,0,1,.1.73c0,.22,0,.45,0,.68A1.67,1.67,0,0,1,21,23.56Z"/></g></g></svg>